# xmcd CD database file
#
# Track frame offsets:
#	150
#	16292
#	34812
#	48865
#	60320
#	73560
#	84005
#	97707
#	111657
#	126185
#
# Disc length: 1899 seconds
#
# Revision: 0
# Processed by: cddbd v1.5.2PL0 Copyright (c) Steve Scherf et al.
# Submitted via: CDex 1.50
#
DISCID=7307690a
DTITLE=Ray Bryant - Groove House
DYEAR=1963
DGENRE=Jazz
TTITLE0=Joey
TTITLE1=Sweetest Sounds
TTITLE2=Glissamba
TTITLE3=My Reverie
TTITLE4=Long Way from Home
TTITLE5=Backroom
TTITLE6=Chariot Swing
TTITLE7=No_Two
TTITLE8=Gravy Waltz
TTITLE9=Be_Bop Irishman
EXTD=YEAR: 1963
EXTT0=
EXTT1=
EXTT2=
EXTT3=
EXTT4=
EXTT5=
EXTT6=
EXTT7=
EXTT8=
EXTT9=
PLAYORDER=
